<mxfile host="app.diagrams.net" modified="2024-03-10T18:48:54.449Z" agent="Mozilla/5.0 (Macintosh; Intel Mac OS X 10_15_7) AppleWebKit/537.36 (KHTML, like Gecko) Chrome/122.0.0.0 Safari/537.36" etag="uUcBp7OMXr5Hb7sIwFvu" version="24.0.4" type="device">
  <diagram name="Seite-1" id="lBc85ctHX1wu7w2BZ25X">
    <mxGraphModel dx="1277" dy="1049" grid="1" gridSize="10" guides="1" tooltips="1" connect="1" arrows="1" fold="1" page="1" pageScale="1" pageWidth="827" pageHeight="1169" math="0" shadow="0">
      <root>
        <mxCell id="0" />
        <mxCell id="1" parent="0" />
        <mxCell id="Eh9opQZwhDbGR_94qEvi-2" value="" style="rounded=0;whiteSpace=wrap;html=1;movable=1;resizable=1;rotatable=1;deletable=1;editable=1;locked=0;connectable=1;" vertex="1" parent="1">
          <mxGeometry x="25" y="190" width="770" height="860" as="geometry" />
        </mxCell>
        <mxCell id="Eh9opQZwhDbGR_94qEvi-5" value="&lt;font style=&quot;font-size: 20px;&quot;&gt;Tic Tac Toe&lt;/font&gt;" style="text;html=1;align=center;verticalAlign=middle;whiteSpace=wrap;rounded=0;fontStyle=1" vertex="1" parent="1">
          <mxGeometry x="265" y="240" width="300" height="30" as="geometry" />
        </mxCell>
        <mxCell id="Eh9opQZwhDbGR_94qEvi-7" value="&lt;h1 style=&quot;margin-top: 0px;&quot;&gt;&lt;font style=&quot;font-size: 12px;&quot;&gt;&lt;span style=&quot;font-weight: normal;&quot;&gt;There is no strife, no prejudice, no national conflict in outer space as yet. Its hazards are hostile to us all. Its conquest deserves the best of all mankind,&amp;nbsp;&lt;/span&gt;&lt;br&gt;&lt;/font&gt;&lt;/h1&gt;" style="text;html=1;whiteSpace=wrap;overflow=hidden;rounded=0;fontStyle=0" vertex="1" parent="1">
          <mxGeometry x="154" y="280" width="520" height="70" as="geometry" />
        </mxCell>
        <mxCell id="Eh9opQZwhDbGR_94qEvi-8" value="" style="whiteSpace=wrap;html=1;aspect=fixed;" vertex="1" parent="1">
          <mxGeometry x="294" y="620" width="80" height="80" as="geometry" />
        </mxCell>
        <mxCell id="Eh9opQZwhDbGR_94qEvi-9" value="" style="whiteSpace=wrap;html=1;aspect=fixed;" vertex="1" parent="1">
          <mxGeometry x="374" y="620" width="80" height="80" as="geometry" />
        </mxCell>
        <mxCell id="Eh9opQZwhDbGR_94qEvi-10" value="" style="whiteSpace=wrap;html=1;aspect=fixed;" vertex="1" parent="1">
          <mxGeometry x="454" y="620" width="80" height="80" as="geometry" />
        </mxCell>
        <mxCell id="Eh9opQZwhDbGR_94qEvi-11" value="" style="whiteSpace=wrap;html=1;aspect=fixed;" vertex="1" parent="1">
          <mxGeometry x="294" y="700" width="80" height="80" as="geometry" />
        </mxCell>
        <mxCell id="Eh9opQZwhDbGR_94qEvi-12" value="" style="whiteSpace=wrap;html=1;aspect=fixed;" vertex="1" parent="1">
          <mxGeometry x="294" y="780" width="80" height="80" as="geometry" />
        </mxCell>
        <mxCell id="Eh9opQZwhDbGR_94qEvi-14" value="" style="whiteSpace=wrap;html=1;aspect=fixed;" vertex="1" parent="1">
          <mxGeometry x="454" y="700" width="80" height="80" as="geometry" />
        </mxCell>
        <mxCell id="Eh9opQZwhDbGR_94qEvi-15" value="" style="whiteSpace=wrap;html=1;aspect=fixed;" vertex="1" parent="1">
          <mxGeometry x="374" y="780" width="80" height="80" as="geometry" />
        </mxCell>
        <mxCell id="Eh9opQZwhDbGR_94qEvi-16" value="" style="whiteSpace=wrap;html=1;aspect=fixed;" vertex="1" parent="1">
          <mxGeometry x="374" y="700" width="80" height="80" as="geometry" />
        </mxCell>
        <mxCell id="Eh9opQZwhDbGR_94qEvi-17" value="" style="whiteSpace=wrap;html=1;aspect=fixed;" vertex="1" parent="1">
          <mxGeometry x="454" y="780" width="80" height="80" as="geometry" />
        </mxCell>
        <mxCell id="Eh9opQZwhDbGR_94qEvi-18" value="" style="rounded=1;whiteSpace=wrap;html=1;" vertex="1" parent="1">
          <mxGeometry x="351" y="360" width="126" height="30" as="geometry" />
        </mxCell>
        <mxCell id="Eh9opQZwhDbGR_94qEvi-19" value="Spiel Starten" style="text;html=1;align=center;verticalAlign=middle;whiteSpace=wrap;rounded=0;" vertex="1" parent="1">
          <mxGeometry x="360" y="360" width="100" height="30" as="geometry" />
        </mxCell>
        <mxCell id="Eh9opQZwhDbGR_94qEvi-27" value="" style="rounded=1;whiteSpace=wrap;html=1;" vertex="1" parent="1">
          <mxGeometry x="265" y="430" width="126" height="30" as="geometry" />
        </mxCell>
        <mxCell id="Eh9opQZwhDbGR_94qEvi-28" value="Name Spieler 1" style="text;html=1;align=center;verticalAlign=middle;whiteSpace=wrap;rounded=0;" vertex="1" parent="1">
          <mxGeometry x="278" y="430" width="100" height="30" as="geometry" />
        </mxCell>
        <mxCell id="Eh9opQZwhDbGR_94qEvi-29" value="" style="rounded=1;whiteSpace=wrap;html=1;" vertex="1" parent="1">
          <mxGeometry x="414" y="430" width="126" height="30" as="geometry" />
        </mxCell>
        <mxCell id="Eh9opQZwhDbGR_94qEvi-30" value="Name Spieler 2" style="text;html=1;align=center;verticalAlign=middle;whiteSpace=wrap;rounded=0;" vertex="1" parent="1">
          <mxGeometry x="427" y="430" width="100" height="30" as="geometry" />
        </mxCell>
        <mxCell id="Eh9opQZwhDbGR_94qEvi-31" value="" style="rounded=1;whiteSpace=wrap;html=1;" vertex="1" parent="1">
          <mxGeometry x="345" y="510" width="126" height="30" as="geometry" />
        </mxCell>
        <mxCell id="Eh9opQZwhDbGR_94qEvi-32" value="Start!" style="text;html=1;align=center;verticalAlign=middle;whiteSpace=wrap;rounded=0;" vertex="1" parent="1">
          <mxGeometry x="358" y="510" width="100" height="30" as="geometry" />
        </mxCell>
        <mxCell id="Eh9opQZwhDbGR_94qEvi-33" value="Player 1: 2&amp;nbsp;" style="text;strokeColor=none;fillColor=none;html=1;fontSize=24;fontStyle=1;verticalAlign=middle;align=center;" vertex="1" parent="1">
          <mxGeometry x="100" y="610" width="100" height="40" as="geometry" />
        </mxCell>
        <mxCell id="Eh9opQZwhDbGR_94qEvi-34" value="Player 2: 3&amp;nbsp;" style="text;strokeColor=none;fillColor=none;html=1;fontSize=24;fontStyle=1;verticalAlign=middle;align=center;" vertex="1" parent="1">
          <mxGeometry x="100" y="660" width="100" height="40" as="geometry" />
        </mxCell>
        <mxCell id="Eh9opQZwhDbGR_94qEvi-36" value="" style="rounded=1;whiteSpace=wrap;html=1;" vertex="1" parent="1">
          <mxGeometry x="90" y="725" width="126" height="30" as="geometry" />
        </mxCell>
        <mxCell id="Eh9opQZwhDbGR_94qEvi-37" value="Neu starten!" style="text;html=1;align=center;verticalAlign=middle;whiteSpace=wrap;rounded=0;" vertex="1" parent="1">
          <mxGeometry x="103" y="725" width="100" height="30" as="geometry" />
        </mxCell>
      </root>
    </mxGraphModel>
  </diagram>
</mxfile>
